<svg width="1661" height="1272" viewBox="0 0 1661 1272" fill="none" xmlns="http://www.w3.org/2000/svg">
<g clip-path="url(#clip0_906_74)">
<rect width="1661" height="1272" fill="white"/>
<path d="M2415.2 -1402.42C2461.81 -1468.87 2554.97 -1481.88 2618.01 -1430.76L4289.34 -75.1685C4384.39 1.92486 4341.74 155.278 4220.53 172.215L2662.05 389.994L1313.47 578.44C1192.27 595.377 1109.21 459.591 1179.48 359.396L2415.2 -1402.42Z" fill="#002EFF"/>
<path d="M1625.61 -1312.42C1672.21 -1378.87 1765.38 -1391.88 1828.42 -1340.76L3499.75 14.8315C3594.8 91.9249 3552.14 245.278 3430.94 262.215L1872.46 479.994L523.882 668.44C402.675 685.377 319.613 549.591 389.89 449.396L1625.61 -1312.42Z" fill="#42E8B4"/>
</g>
<defs>
<clipPath id="clip0_906_74">
<rect width="1661" height="1272" fill="white"/>
</clipPath>
</defs>
</svg>
